<svg id="Layer_1" data-name="Layer 1" xmlns="http://www.w3.org/2000/svg" width="512" height="512" viewBox="0 0 103.69 103.69"> <defs> <style> .background,.eye {fill:#005096;} <!-- Background !--> .background {stroke:#005096;stroke-miterlimit:10;} <!-- Border !--> .gryphon {fill:#ffffff;} <!-- Gryphon !-->  </style> </defs> <title>Team 4990: Gryphon Robotics</title> <rect class="background" x="0.5" y="0.5" width="102.69" height="102.69"/> <path class="gryphon" d="M23.79,77.58c1-9.25,5.12-15.95,13.9-19.1,2.81-1,5.75-1.71,8.54-2.78A26.18,26.18,0,0,0,60.17,44.13c3.52-6.2,4.08-12.62.81-19.09-1.35-2.66-3-5.15-4.88-8.27L65.38,5.15l8.76,8L70.93,18c1.12,4.56,2.95,8.07,9.1,5.91.63,4.63,1.17,8.64,1.72,12.71-3.33,1.36-7,1.38-7.35,5.93-.27,3.65,3.46,3.16,4.81,5.92L72.62,59.79l-5.08-2c-1,.92-2.14,1.88-3.21,2.89C58.57,66,52,69.5,43.92,70.06,36.59,70.57,29.49,72.09,23.79,77.58Z"/> <path class="gryphon" d="M69.17,68.26c-.31,5.58-2.13,10.52.31,14.95,2.28,4.14,5.29,7.88,7.91,11.68-3.68,1-28.55,1-32.74-.31,2-5.46,7.62-3.67,11.05-5.81.12-.33.39-.66.33-.92-1.65-6.91.75-12,6.86-15.47C64.86,71.26,66.68,69.91,69.17,68.26Z"/> <path class="gryphon" d="M88.67,34.79c3.66,4.42,3.41,8.71,2.62,13-.4,2.11-2.19,3.26-4.2,3.89-2.18.68-5.15.58-5.92,3.08A22.24,22.24,0,0,0,80.07,64a33.24,33.24,0,0,0,3.48,9.79c2.31,4.71,2.15,9.29.3,14a11.47,11.47,0,0,1-1.13,1.74c-.42-3.38-.42-6.59-1.29-9.55s-2.57-5.74-4-8.56c-2-4.08-2.68-8.29-.74-12.5,2.09-4.52,4.45-8.91,6.74-13.33.54-1,1.19-2.06,2.7-1.12.15.09,1.34-.86,1.45-1.44C88.05,40.54,88.27,38.07,88.67,34.79Z"/> <path class="gryphon" d="M46.75,30.71c-.09,9.24-2.46,16.62-9.32,21.73-6.2,4.6-12.2,9.23-15.32,16.7.18-6.22,1.91-11.77,6.07-16.31a58.74,58.74,0,0,1,7.57-7.23,27.92,27.92,0,0,0,9.56-12.5A20.31,20.31,0,0,1,46.75,30.71Z"/> <path class="gryphon" d="M37.39,74.39c-1,1.21-2,2.38-3,3.63a63,63,0,0,0-4,5.65c-2,3.32-3.82,6.74-.63,11.18-6.73.47-12.72.39-19,.3.91-4.27,3.23-5.58,6.65-5.38,2.66.16,4.59-.74,5.05-3.59.89-5.58,4.63-8.57,9.49-10.56,1.62-.66,3.27-1.28,4.91-1.92Z"/> <path class="gryphon" d="M72.88,65.56c1.86,4,3.68,7.73,5.26,11.51,2,4.67,2.69,9.48,1.17,14.61C70.33,85.35,69.54,75.13,72.88,65.56Z"/> <path class="gryphon" d="M38.46,77.17a9.08,9.08,0,0,1,5.41-4.39,28.57,28.57,0,0,1,4.36-1.06c6.05-1,11.56-3,16.19-7.19a7.44,7.44,0,0,1,1.85-.68A32,32,0,0,1,46.59,78.71,8.77,8.77,0,0,1,38.46,77.17Z"/> <path class="gryphon" d="M48.57,43.55c1.71,5.36,1.22,7.6-2.59,9.72a27.75,27.75,0,0,1-9.86,3.13A86.58,86.58,0,0,0,43,50.62,82.68,82.68,0,0,0,48.57,43.55Z"/> <path class="gryphon" d="M43.3,19A14.1,14.1,0,0,0,29.53,9.63c.13.48.26.94.37,1.4,1,4.18.51,5.26-3.35,7-1.21.55-2.53.84-3.71,1.45s-2.77,1.2-3.16,2.2c-.95,2.45-3.05,3.43-4.86,4.81-5,3.81-5.36,7.53-1,12.6,4-1.51,7.34-5.26,12.48-4.1l-5.33,3.36.37.85,11.28-3c-5.59,5-11.59,9.59-14.18,17A30.49,30.49,0,0,0,19,75.06c.29-3.3.34-6.64.91-9.88C21.42,56.73,26.3,50.4,32.73,45a55.52,55.52,0,0,0,8.63-8.91C45.23,30.89,45.55,25,43.3,19ZM26.22,27.18c1.11-2.57,2.56-2.89,4.77-2.1C29.86,26.94,28.29,27,26.22,27.18Z"/> <path class="eye" d="M26.22,27.18c2.07-.2,3.64-.24,4.77-2.1C28.78,24.29,27.33,24.61,26.22,27.18Z"/> </svg> 